<?xml version="1.0" encoding="utf-8"?>
<!-- Uploaded to: SVG Repo, www.svgrepo.com, Generator: SVG Repo Mixer Tools -->
<svg width="800px" height="800px" viewBox="0 0 1024 1024" class="icon"  version="1.1" xmlns="http://www.w3.org/2000/svg"><path d="M839.1 936.1h-510V674.6c0-10.4 8.5-18.9 18.9-18.9h491.1v280.4zM246 932.1h-51.4V717.5c0-8.4 6.8-15.2 15.2-15.2H246v229.8z" fill="#CCCCCC" /><path d="M940 924.1h-21.3V654.9c0-15.4-14.4-27.9-32-27.9h-89v-24c0-15.4-14.4-27.9-32-27.9H266c-17.6 0-32 12.5-32 27.9v24h-91.1c-17.6 0-32 12.5-32 27.9v269.2H83.6c-7 0-13.2 3.2-16.6 8-2.2 2.5-3.5 5.5-3.5 8.9v1.1c0 3.3 1.3 6.4 3.5 8.9 3.5 4.8 9.6 8 16.6 8H940c10.8 0 19.6-7.6 19.6-16.9V941c0-9.3-8.8-16.9-19.6-16.9zM798 661.9h60.8c11 0 19.8 8.9 19.8 19.8v240.6H798V661.9zM274 610h483.7v313.4H274V610z m-108.2 51.9h65.7v260.4h-80.6V676.8c0-8.2 6.7-14.9 14.9-14.9z" fill="#666666" /><path d="M367.3 676h52.5v52.5h-52.5zM366.3 805h52.5v52.5h-52.5zM606.4 676h52.5v52.5h-52.5zM605.4 805h52.5v52.5h-52.5zM486.9 676h52.5v52.5h-52.5zM485.9 805h52.5v52.5h-52.5zM534.2 513.7c280.4-20 266.3-457.8-42.6-448.2-39.1 4.7-44.7 8.5-67.3 15.7-55.9 23.1-103.7 72.9-125.6 130C241.1 361 348 527 534.2 513.7z m143.5-141.2l2.2 6.7c-18.9 21.1-31.3 60.3-62.8 69.5v11.2h-13.5c-9.9 7.6-23 20.3-26.9 33.6h-2.2c-20.4-20.5 16.5-43.6 6.7-78.4-3.8-13.4-18.5-18.7-24.7-33.6 1.1-18.2 8.5-31.9 13.5-44.8 17.5-28 103.3 28.1 107.7 35.8zM356.9 137.2c27.2-17.8 60.4-34.2 105.4-33.6v-2.2c-4.6-4.9-3-4.3-11.2-6.7l33.7-4.5 24.7 20.2c16-9.1 20.6-10.6 42.6-6.7v2.2c-4.6 8.1-6.8 11.6-15.7 15.7-2.2 4.5-4.5 9-6.7 13.4l24.7 15.7c9.6-1.6 9.5 4.4 11.2 15.7 9.5-0.3 13.5-4.1 15.7-17.9 2.4-8-2.2-13.1-6.7-20.2 36.4 5.4 59.3 28.5 74 58.3l-4.5 4.5-6.7-2.2v-11.2h-20.2c3 7.5 6 14.9 9 22.4-4.6 7.6-45.6 35.6-53.8 38.1v22.4L532 244.9c-3.7 1.5-7.5 3-11.2 4.5-4.5 9-4.2 17.2-2.2 29.1 1.5 2.2 3 4.5 4.5 6.7 5.2-2.2 10.5-4.5 15.7-6.7v17.9c7.5 1.5 15 3 22.4 4.5 5.5 5.7 4.4 13 11.2 17.9-23 4.1-129.8-74.7-139.1-94.1-15.7-32.5 8.8-56.7-24.7-71.7-23.8-10.2-43 4.9-58.3 9l6.6-24.8z" fill="#666666" /></svg>